# Blender v3.0.1 OBJ File: 'Avatar.blend'
# www.blender.org
mtllib LeftArm.mtl
o Left_Arm_Cube.013
v -2.884323 4.003639 0.500000
v -2.884323 4.003639 -0.500000
v -2.885594 3.003640 -0.500000
v -2.885594 3.003640 0.500000
v -0.884325 4.001097 0.500000
v -0.884325 4.001097 -0.500000
v -0.885596 3.001098 -0.500000
v -0.885596 3.001098 0.500000
vt 0.746794 0.370643
vt 0.641692 0.151028
vt 0.641692 0.370643
vt 0.860413 0.370943
vt 0.754410 0.149718
vt 0.754410 0.370943
vt 0.972599 0.371210
vt 0.867203 0.150048
vt 0.867203 0.371210
vt 0.633780 0.370527
vt 0.528592 0.151106
vt 0.528592 0.370527
vt 0.633741 0.033707
vt 0.528754 0.142177
vt 0.633741 0.142177
vt 0.531202 0.487203
vt 0.632672 0.380972
vt 0.531202 0.380972
vt 0.746794 0.151028
vt 0.860413 0.149718
vt 0.972599 0.150048
vt 0.633780 0.151106
vt 0.528754 0.033707
vt 0.632672 0.487203
vn 0.0013 1.0000 0.0000
vn 0.0000 0.0000 -1.0000
vn -0.0013 -1.0000 0.0000
vn 0.0000 0.0000 1.0000
vn -1.0000 0.0013 0.0000
vn 1.0000 -0.0013 0.0000
usemtl RightArm
s off
f 6/1/1 1/2/1 5/3/1
f 7/4/2 2/5/2 6/6/2
f 8/7/3 3/8/3 7/9/3
f 5/10/4 4/11/4 8/12/4
f 2/13/5 4/14/5 1/15/5
f 7/16/6 5/17/6 8/18/6
f 6/1/1 2/19/1 1/2/1
f 7/4/2 3/20/2 2/5/2
f 8/7/3 4/21/3 3/8/3
f 5/10/4 1/22/4 4/11/4
f 2/13/5 3/23/5 4/14/5
f 7/16/6 6/24/6 5/17/6
